<?xml version="1.0" encoding="UTF-8"?><svg id="Camada_2" xmlns="http://www.w3.org/2000/svg" xmlns:xlink="http://www.w3.org/1999/xlink" viewBox="0 0 239.27 42.94"><defs><style>.cls-1{letter-spacing:-.08em;}.cls-2{letter-spacing:.05em;}.cls-3{fill:#468bf8;}.cls-3,.cls-4,.cls-5,.cls-6{stroke-width:0px;}.cls-7{letter-spacing:.01em;}.cls-8{letter-spacing:.06em;}.cls-9{font-family:RedHatDisplay-Light, 'Red Hat Display';font-size:10px;font-weight:300;}.cls-9,.cls-4{fill:#fff;}.cls-10{filter:url(#drop-shadow-1);}.cls-11{letter-spacing:-.02em;}.cls-12{fill:#1d1d1b;stroke:#ff8e05;stroke-miterlimit:10;stroke-width:.5px;}.cls-5{fill:#fbb360;}.cls-13{letter-spacing:.07em;}.cls-14{letter-spacing:.08em;}.cls-6{fill:#ff8e05;}.cls-15{letter-spacing:.08em;}</style><filter id="drop-shadow-1" filterUnits="userSpaceOnUse"><feOffset dx=".5" dy=".5"/><feGaussianBlur result="blur" stdDeviation=".5"/><feFlood flood-color="#4c4c4c" flood-opacity=".3"/><feComposite in2="blur" operator="in"/><feComposite in="SourceGraphic"/></filter></defs><g id="Camada_16"><path class="cls-4" d="m47.16,20.97V1.45h9.54c1.32,0,2.49.26,3.5.77,1.01.51,1.8,1.22,2.37,2.13.57.91.85,1.96.85,3.15s-.34,2.34-1.03,3.29c-.18.27-.42.55-.71.82-1.38,1.25-3.16,1.29-3.82,1.27,2.03,2.7,4.06,5.4,6.09,8.1h-4.52c-2.74-3.65-5.49-7.3-8.23-10.95v11.09-.14s-4.04,0-4.04,0Zm4.04-10.79h5.13c.91,0,1.64-.24,2.19-.73.55-.48.82-1.12.82-1.9s-.27-1.41-.82-1.9c-.55-.48-1.28-.73-2.19-.73h-5.13v5.24Z"/><path class="cls-4" d="m72.09,21.25c-1.45,0-2.76-.33-3.93-1-1.17-.67-2.1-1.57-2.79-2.71-.69-1.13-1.03-2.41-1.03-3.82s.34-2.69,1.02-3.83c.68-1.14,1.61-2.05,2.79-2.72,1.18-.67,2.5-1,3.95-1s2.77.33,3.95,1c1.18.67,2.11,1.58,2.79,2.72.68,1.14,1.02,2.42,1.02,3.83s-.34,2.69-1.02,3.82c-.68,1.13-1.6,2.04-2.77,2.71-1.17.67-2.49,1-3.96,1Zm0-3.32c.76,0,1.45-.19,2.05-.56.6-.37,1.09-.88,1.45-1.52.36-.64.54-1.35.54-2.13s-.18-1.52-.54-2.15c-.36-.63-.85-1.14-1.45-1.52-.6-.38-1.29-.57-2.05-.57s-1.42.19-2.04.57c-.61.38-1.1.89-1.45,1.52-.35.63-.53,1.35-.53,2.15s.18,1.49.53,2.13c.35.64.84,1.15,1.45,1.52.61.37,1.29.56,2.04.56Z"/><path class="cls-4" d="m82.18,20.97V6.44c1.27.37,2.55.74,3.82,1.12,1.04-.93,2.3-1.39,3.79-1.39.95,0,1.79.19,2.54.57.74.38,1.36.92,1.84,1.6.59-.71,1.3-1.25,2.11-1.62.81-.37,1.71-.56,2.69-.56,1.1,0,2.06.25,2.89.74.83.49,1.48,1.17,1.95,2.04.47.86.71,1.87.71,3.03v9.01h-3.79v-8.45c0-.95-.25-1.7-.75-2.24-.5-.55-1.17-.82-2.01-.82-.58,0-1.1.12-1.58.36-.47.24-.88.6-1.21,1.09.02.17.04.33.06.5.02.17.03.35.03.56v9.01h-3.82v-8.45c0-.95-.25-1.7-.74-2.24-.49-.55-1.16-.82-1.99-.82-.58,0-1.09.11-1.55.33-.46.22-.84.56-1.16,1v10.18h-3.82Z"/><path class="cls-4" d="m107.42,20.97V6.44c1.27.37,2.55.74,3.82,1.12,1.04-.93,2.3-1.39,3.79-1.39.95,0,1.79.19,2.54.57.74.38,1.36.92,1.84,1.6.59-.71,1.3-1.25,2.11-1.62.81-.37,1.71-.56,2.69-.56,1.1,0,2.06.25,2.89.74.83.49,1.48,1.17,1.95,2.04.47.86.71,1.87.71,3.03v9.01h-3.79v-8.45c0-.95-.25-1.7-.75-2.24-.5-.55-1.17-.82-2.01-.82-.58,0-1.1.12-1.58.36-.47.24-.88.6-1.21,1.09.02.17.04.33.06.5.02.17.03.35.03.56v9.01h-3.82v-8.45c0-.95-.25-1.7-.74-2.24-.49-.55-1.16-.82-1.99-.82-.58,0-1.09.11-1.55.33-.46.22-.84.56-1.16,1v10.18h-3.82Z"/><path class="cls-6" d="m134.56,4.71c-.6,0-1.11-.21-1.53-.64-.43-.43-.64-.94-.64-1.53s.21-1.13.64-1.55c.43-.42.94-.63,1.53-.63s1.13.21,1.55.63c.42.42.63.93.63,1.55s-.21,1.11-.63,1.53c-.42.43-.93.64-1.55.64Z"/><rect class="cls-4" x="132.66" y="6.44" width="3.82" height="14.53"/><path class="cls-4" d="m146.57,21.25c-1.45,0-2.77-.33-3.95-1-1.18-.67-2.11-1.57-2.8-2.71-.69-1.13-1.03-2.41-1.03-3.82s.33-2.69.99-3.82c.66-1.13,1.56-2.04,2.69-2.71,1.13-.67,2.4-1,3.79-1s2.63.34,3.71,1.03c1.08.69,1.93,1.62,2.55,2.79.62,1.17.93,2.5.93,3.99v1h-10.76c.17.58.44,1.1.82,1.56.38.47.85.83,1.42,1.09.57.26,1.18.39,1.83.39.88,0,1.54-.21,1.8-.31.37-.14.66-.3.87-.42.53.95,1.06,1.9,1.58,2.85-.31.18-.75.39-1.28.58-.43.15-1.6.5-3.17.5Zm-3.93-8.98h7.06c-.13-.58-.37-1.08-.71-1.52-.34-.44-.75-.78-1.23-1.03s-1-.38-1.58-.38-1.13.12-1.62.36c-.48.24-.89.58-1.21,1.02-.33.44-.56.95-.71,1.55Z"/><path class="cls-4" d="m169.76,21.28c-1.45,0-2.8-.26-4.04-.77-1.25-.51-2.34-1.23-3.28-2.15-.94-.92-1.67-1.99-2.2-3.21-.53-1.22-.79-2.53-.79-3.95s.26-2.73.79-3.95c.53-1.22,1.26-2.29,2.2-3.21.94-.92,2.03-1.64,3.28-2.15,1.25-.51,2.59-.77,4.04-.77s2.8.26,4.06.77c1.25.51,2.35,1.23,3.29,2.15.94.92,1.67,1.99,2.19,3.21.52,1.22.78,2.53.78,3.95s-.26,2.73-.78,3.95c-.52,1.22-1.25,2.29-2.19,3.21-.94.92-2.04,1.64-3.29,2.15-1.25.51-2.61.77-4.06.77Zm0-3.71c.89,0,1.71-.16,2.45-.49.74-.32,1.39-.77,1.95-1.34.56-.57.99-1.24,1.31-2.02.32-.78.47-1.62.47-2.51s-.16-1.75-.47-2.52c-.32-.77-.75-1.44-1.31-2.01-.56-.57-1.21-1.01-1.95-1.34-.74-.33-1.56-.49-2.45-.49s-1.68.16-2.43.49c-.74.33-1.39.77-1.95,1.34-.56.57-.99,1.24-1.31,2.01-.32.77-.47,1.6-.47,2.5s.16,1.76.47,2.54c.32.78.75,1.45,1.31,2.02.56.57,1.21,1.01,1.95,1.34.74.33,1.55.49,2.43.49Z"/><path class="cls-4" d="m184.21,20.97v-11.35h-3.23c1.08-1.06,2.16-2.12,3.23-3.18v-1.39c0-1.64.47-2.89,1.42-3.75.95-.86,2.31-1.3,4.1-1.3.39,0,.79.02,1.2.06.41.04.76.1,1.06.2v3.21c-.35-.07-.66-.13-.92-.17-.26-.04-.55-.06-.86-.06-.73,0-1.27.15-1.63.46s-.54.79-.54,1.44v1.31h3.96c-1.32,1.06-2.64,2.12-3.96,3.18v11.35h-3.82Z"/><path class="cls-4" d="m194.73,20.97v-11.35c-1.37.03-2.73.06-4.1.09,1.37-1.09,2.73-2.18,4.1-3.26v-1.39c0-1.64.47-2.89,1.42-3.75.95-.86,2.31-1.3,4.1-1.3.39,0,.79.02,1.2.06.41.04.76.1,1.06.2v3.21c-.35-.07-.66-.13-.92-.17-.26-.04-.55-.06-.86-.06-.73,0-1.27.15-1.63.46s-.54.79-.54,1.44v1.31h3.96v3.18h-3.96v11.35h-3.82Z"/><path class="cls-6" d="m206.42,4.71c-.6,0-1.11-.21-1.53-.64-.43-.43-.64-.94-.64-1.53s.21-1.13.64-1.55c.43-.42.94-.63,1.53-.63s1.13.21,1.55.63c.42.42.63.93.63,1.55s-.21,1.11-.63,1.53c-.42.43-.93.64-1.55.64Z"/><rect class="cls-4" x="204.52" y="6.44" width="3.82" height="14.53"/><path class="cls-4" d="m217.95,21.25c-1.43,0-2.72-.33-3.88-.99-1.15-.66-2.06-1.56-2.73-2.71-.67-1.14-1-2.42-1-3.83s.33-2.71,1-3.85c.67-1.13,1.58-2.04,2.73-2.71,1.15-.67,2.44-1,3.88-1,1.15,0,2.25.22,3.3.67.53.22,1.07.58,1.58.9.05.03.1.06.12.08-.53,1.06-1.06,2.11-1.58,3.17-.27-.3-.74-.73-1.43-1.06-.89-.42-1.68-.43-1.91-.43-.74,0-1.41.19-1.99.56-.59.37-1.05.87-1.39,1.51-.34.63-.52,1.36-.52,2.18s.17,1.49.52,2.13c.34.64.82,1.14,1.44,1.51.61.36,1.29.54,2.04.54.65,0,1.26-.13,1.83-.4.57-.27,1.11-.67,1.63-1.21.46,1.08.92,2.16,1.38,3.24-.45.34-1.04.72-1.77,1.04-.92.4-1.68.68-3.23.68Z"/><path class="cls-4" d="m231.27,21.25c-1.45,0-2.77-.33-3.95-1-1.18-.67-2.11-1.57-2.8-2.71-.69-1.13-1.03-2.41-1.03-3.82s.33-2.69.99-3.82c.66-1.13,1.56-2.04,2.69-2.71,1.13-.67,2.4-1,3.79-1s2.63.34,3.71,1.03c1.08.69,1.93,1.62,2.55,2.79.62,1.17.93,2.5.93,3.99v1h-10.76c.17.58.44,1.1.82,1.56.38.47.85.83,1.42,1.09.57.26,1.18.39,1.83.39.37,0,1.03,0,1.8-.31.35-.14.61-.3.79-.42.53.95,1.06,1.9,1.58,2.85-.29.17-.69.39-1.2.58-1.39.53-2.58.5-3.17.5Zm-3.93-8.98h7.06c-.13-.58-.37-1.08-.71-1.52-.34-.44-.75-.78-1.23-1.03s-1-.38-1.58-.38-1.13.12-1.62.36c-.48.24-.89.58-1.21,1.02-.33.44-.56.95-.71,1.55Z"/><rect class="cls-4" x="202.36" y="6.44" width="2.22" height="3.18"/><text class="cls-9" transform="translate(46.48 40.4)"><tspan class="cls-8" x="0" y="0">T</tspan><tspan class="cls-7" x="6.65" y="0">E</tspan><tspan class="cls-13" x="12.77" y="0">CNO</tspan><tspan class="cls-11" x="37.18" y="0">L</tspan><tspan class="cls-8" x="42.91" y="0">OGI</tspan><tspan class="cls-14" x="62.92" y="0">A</tspan><tspan class="cls-8" x="70.27" y="0">, E</tspan><tspan class="cls-2" x="82.95" y="0">S</tspan><tspan class="cls-8" x="89.26" y="0">T</tspan><tspan class="cls-15" x="95.91" y="0">R</tspan><tspan class="cls-1" x="103" y="0">A</tspan><tspan class="cls-8" x="108.75" y="0">T</tspan><tspan class="cls-7" x="115.4" y="0">É</tspan><tspan class="cls-13" x="121.52" y="0">GIA &amp; DESIGN</tspan></text><line class="cls-12" x1="47.16" y1="27.59" x2="238.16" y2="27.59"/><path class="cls-3" d="m0,16.74h8.34v23.71H0v-23.71Z"/><path class="cls-3" d="m15.15,1.59v8.56h6.37c7.43,2.76,7.48,11.56.22,14.49h-10.1c3.59,5.27,7.17,10.54,10.76,15.81h10.32c-2.05-3-4.1-6-6.15-9,5.79-1.75,8.79-9.76,8.78-11.42,1.9-10.46-6.28-17.45-13.17-18.44h-7.03Z"/><g id="Dobra" class="cls-10"><path class="cls-6" d="m14.93,1.59C9.95,6.57,4.98,11.54,0,16.52h8.34v-6.37h6.59V1.59Z"/><rect class="cls-5" x="8.34" y="10.13" width="6.59" height="6.4"/></g></g></svg>