<svg xmlns="http://www.w3.org/2000/svg" width="24" height="24" viewBox="0 0 24 24" fill="none"><path d="M21.9049 9.0902C18.8199 7.44096 16.5688 4.06818 15.9344 -0.00012207C15.3 4.06818 13.0488 7.44096 9.9638 9.0902C9.36342 9.41119 7.8689 9.90482 7.8689 9.90482C7.8689 9.90482 9.36342 10.3984 9.9638 10.7194C13.049 12.3687 15.3 15.7417 15.9344 19.8098C16.5688 15.7414 18.8199 12.3687 21.9049 10.7194C22.5053 10.3984 23.9998 9.90482 23.9998 9.90482C23.9998 9.90482 22.5053 9.41119 21.9049 9.0902Z" fill="#DEFD5F"></path><path d="M9.16528 17.6446C7.33624 16.6668 6.00164 14.6671 5.62556 12.2552C5.24949 14.6673 3.91488 16.6668 2.08584 17.6446C1.72993 17.8347 0.843933 18.1274 0.843933 18.1274C0.843933 18.1274 1.72993 18.4201 2.08584 18.6103C3.91488 19.588 5.24949 21.5878 5.62556 23.9998C6.00164 21.5878 7.33624 19.5883 9.16528 18.6103C9.52119 18.4201 10.4072 18.1274 10.4072 18.1274C10.4072 18.1274 9.52119 17.8347 9.16528 17.6446Z" fill="#DEFD5F"></path><path d="M23.6731 18.1275C23.6731 18.6996 23.2954 19.1637 22.8292 19.1637C22.3631 19.1637 21.9854 18.6999 21.9854 18.1275C21.9854 17.555 22.3631 17.0912 22.8292 17.0912C23.2954 17.0912 23.6731 17.555 23.6731 18.1275Z" fill="#DEFD5F"></path><path d="M8.17594 3.87672C8.17594 4.44915 7.79803 4.91301 7.33211 4.91301C6.86599 4.91301 6.48828 4.44915 6.48828 3.87672C6.48828 3.30454 6.86599 2.84045 7.33211 2.84045C7.79803 2.84045 8.17594 3.30429 8.17594 3.87672Z" fill="#DEFD5F"></path><path d="M0.843828 10.9411C1.30986 10.9411 1.68766 10.4772 1.68766 9.90488C1.68766 9.33256 1.30986 8.86859 0.843828 8.86859C0.377795 8.86859 0 9.33256 0 9.90488C0 10.4772 0.377795 10.9411 0.843828 10.9411Z" fill="#DEFD5F"></path></svg>