<svg xmlns="http://www.w3.org/2000/svg" width="60" height="60" viewBox="0 0 60 60" fill="none"><g clip-path="url(#clip0_2646_6121)"><path d="M33.2926 19.6244C32.5602 18.5172 31.3305 17.8561 30.0015 17.855C30.0003 17.855 29.9994 17.8542 29.9983 17.8542C29.9973 17.8542 29.9962 17.855 29.9952 17.855C28.6661 17.8561 27.4365 18.5172 26.705 19.6234L17.9906 32.758C17.1047 34.0869 17.1047 35.8042 17.9888 37.1304L19.3343 39.1629C19.6129 39.5844 20.181 39.7001 20.6028 39.4213C21.0248 39.1419 21.1401 38.5743 20.8612 38.1528L19.514 36.1177C19.0393 35.4057 19.0393 34.4857 19.515 33.7719L28.2311 20.6346C28.4492 20.3049 28.7451 20.0608 29.0831 19.8993V30.0103C27.7111 30.4105 26.6997 31.6662 26.6997 33.1668C26.6997 34.9878 28.1792 36.4691 29.9985 36.4691C31.8186 36.4691 33.2999 34.9878 33.2999 33.1668C33.2999 31.6661 32.2871 30.4102 30.9138 30.0102V19.8994C31.2519 20.0611 31.548 20.3056 31.7667 20.6364L35.8495 26.7789C36.1294 27.1995 36.6979 27.3121 37.119 27.0346C37.5401 26.7543 37.6544 26.1863 37.3747 25.7651L33.2926 19.6244ZM31.4689 33.1667C31.4689 33.978 30.8092 34.6382 29.9983 34.6382C29.1893 34.6382 28.5304 33.978 28.5304 33.1667C28.5304 32.3554 29.1893 31.6956 29.9983 31.6956C30.8092 31.6956 31.4689 32.3554 31.4689 33.1667Z" fill="#449584"></path><path d="M34.5924 45.0016H25.4042L23.1854 41.6576C22.9065 41.2361 22.3379 41.1195 21.9168 41.4011C21.4958 41.6805 21.3804 42.2486 21.6603 42.6697L23.2101 45.0052H22.1618C19.6641 45.0052 17.6321 47.0372 17.6321 49.535V54.7638C17.6321 57.2615 19.6641 59.2935 22.1618 59.2935H37.8385C40.3362 59.2935 42.3683 57.2615 42.3683 54.7638V49.535C42.3683 47.0372 40.3362 45.0052 37.8385 45.0052H36.7877L42.015 37.1334C42.901 35.8045 42.901 34.0872 42.016 32.76L39.7095 29.2812C39.4297 28.8602 38.8629 28.7434 38.4409 29.0242C38.0199 29.3036 37.9046 29.8717 38.1844 30.2933L40.4917 33.774C40.9665 34.486 40.9665 35.4059 40.4908 36.1192L34.5924 45.0016ZM40.5373 49.5349V54.7636C40.5373 56.2517 39.3269 57.4626 37.8384 57.4626H22.1617C20.6732 57.4626 19.4628 56.2517 19.4628 54.7636V49.5349C19.4628 48.0468 20.6732 46.8359 22.1617 46.8359H37.8384C39.3269 46.8359 40.5373 48.0468 40.5373 49.5349Z" fill="#449584"></path><path d="M54.4299 24.81C52.6991 16.6239 46.9446 9.90517 39.3387 6.82864H48.9736C49.4082 9.26368 51.5367 11.1192 54.0943 11.1192C56.9613 11.1192 59.2937 8.78368 59.2937 5.91271C59.2937 3.04173 56.9612 0.706299 54.0943 0.706299C51.5364 0.706299 49.4078 2.56243 48.9735 4.99782H35.1175C34.6839 2.56243 32.5583 0.706299 30.0036 0.706299C27.4457 0.706299 25.3171 2.56243 24.8828 4.99782H11.0258C10.5922 2.56243 8.46681 0.706299 5.91282 0.706299C3.04231 0.706299 0.706299 3.04185 0.706299 5.91282C0.706299 8.7838 3.0422 11.1193 5.91282 11.1193C8.46646 11.1193 10.5917 9.2638 11.0257 6.82876H20.6593C13.0519 9.90575 7.29657 16.6249 5.56653 24.8105C2.85751 24.9902 0.706416 27.2459 0.706416 29.9999C0.706416 32.8709 3.04231 35.2064 5.91294 35.2064C8.77899 35.2064 11.1114 32.8709 11.1114 29.9999C11.1114 27.645 9.54118 25.6528 7.39548 25.0116C9.32204 16.2407 16.2442 9.31841 25.014 7.39091C25.6531 9.54353 27.6468 11.1192 30.0036 11.1192C32.3574 11.1192 34.3479 9.54399 34.9862 7.39161C43.7549 9.31923 50.6758 16.2418 52.6015 25.0136C50.4565 25.6573 48.8879 27.6478 48.8879 29.9998C48.8879 32.8708 51.2238 35.2063 54.0945 35.2063C56.9615 35.2063 59.2938 32.8708 59.2938 29.9998C59.2936 27.2424 57.1403 24.9845 54.4299 24.81ZM9.28044 29.9999C9.28044 31.8612 7.76966 33.3755 5.91282 33.3755C4.05153 33.3755 2.53724 31.8611 2.53724 29.9999C2.53724 28.1383 4.05165 26.6238 5.91282 26.6238C7.76966 26.6238 9.28044 28.1383 9.28044 29.9999ZM54.0943 2.53712C55.952 2.53712 57.4628 4.05153 57.4628 5.91271C57.4628 7.77388 55.952 9.28829 54.0943 9.28829C52.2331 9.28829 50.7188 7.77388 50.7188 5.91271C50.7188 4.05153 52.2331 2.53712 54.0943 2.53712ZM5.91282 9.28841C4.05153 9.28841 2.53724 7.77399 2.53724 5.91282C2.53724 4.05165 4.05165 2.53724 5.91282 2.53724C7.76673 2.53724 9.27481 4.04696 9.27962 5.90427C9.27962 5.90743 9.27774 5.91013 9.27774 5.91329C9.27774 5.91634 9.27938 5.91892 9.2795 5.92196C9.27435 7.77892 7.76649 9.28841 5.91282 9.28841ZM30.0036 9.28841C28.1424 9.28841 26.6281 7.77399 26.6281 5.91282C26.6281 4.05165 28.1425 2.53724 30.0036 2.53724C31.8604 2.53724 33.3704 4.05013 33.3718 5.91024C33.3718 5.91142 33.3713 5.91224 33.3713 5.91341C33.3713 5.91446 33.3718 5.91517 33.3718 5.91622C33.37 7.77563 31.8601 9.28841 30.0036 9.28841ZM54.0943 33.3755C52.2331 33.3755 50.7188 31.8611 50.7188 29.9999C50.7188 28.1383 52.2332 26.6238 54.0943 26.6238C55.952 26.6238 57.4628 28.1383 57.4628 29.9999C57.4628 31.8612 55.952 33.3755 54.0943 33.3755Z" fill="#449584"></path></g><defs><clipPath id="clip0_2646_6121"><rect width="60" height="60" fill="white"></rect></clipPath></defs></svg>