<svg xmlns="http://www.w3.org/2000/svg" width="60" height="60" viewBox="0 0 60 60" fill="none"><g clip-path="url(#clip0_2644_5862)"><path d="M57.6245 13.2388L30.3822 0.0873633C30.1407 -0.0291211 29.8594 -0.0291211 29.618 0.0873633L2.37554 13.2388C2.07179 13.3854 1.87878 13.6931 1.87878 14.0303V45.9697C1.87878 46.3069 2.07179 46.6146 2.37554 46.7612L29.6179 59.9126C29.7386 59.9709 29.8694 60.0001 30 60.0001C30.1307 60.0001 30.2614 59.9709 30.3822 59.9126L57.6245 46.7612C57.9283 46.6146 58.1213 46.3069 58.1213 45.9697V14.0304C58.1213 13.6929 57.9282 13.3856 57.6245 13.2388ZM30 1.8549L55.2208 14.0303L47.9098 17.5598C47.8635 17.5245 47.8146 17.4919 47.761 17.466L22.7116 5.37346L30 1.8549ZM20.7266 6.36721L45.9107 18.5249L40.7527 21.0151L15.5791 8.86225L20.7266 6.36721ZM46.4999 20.1923V29.3969L41.682 31.7228V22.5182L46.4999 20.1923ZM56.3635 45.4182L30.8789 57.7208V27.7334L36.9578 24.7988C37.3949 24.5878 37.5782 24.0624 37.3671 23.6252C37.1561 23.1882 36.6307 23.0047 36.1935 23.2158L30 26.2059L27.563 25.0293C27.1258 24.818 26.6004 25.0015 26.3894 25.4387C26.1783 25.8758 26.3616 26.4012 26.7987 26.6123L29.1211 27.7334V57.7208L3.6366 45.4179V15.4306L23.0428 24.7992C23.166 24.8587 23.2962 24.8868 23.4243 24.8868C23.751 24.8868 24.0648 24.7038 24.2164 24.3898C24.4274 23.9527 24.2441 23.4272 23.807 23.2162L4.77929 14.0303L13.5103 9.81533L39.912 22.561C39.9159 22.5664 39.9202 22.5712 39.9242 22.5765V33.1232C39.9242 33.4257 40.0797 33.7068 40.3359 33.8677C40.4781 33.957 40.6404 34.0021 40.8032 34.0021C40.9335 34.0021 41.0642 33.9732 41.1852 33.9147L47.761 30.7402C48.0647 30.5936 48.2577 30.2861 48.2577 29.9487V19.3438L56.3635 15.4307V45.4182Z" fill="#449584"></path><path d="M10.8897 42.0091L6.89187 40.0792C6.45453 39.8679 5.9293 40.0514 5.71824 40.4885C5.50719 40.9256 5.69047 41.4511 6.12758 41.6622L10.1254 43.5921C10.2486 43.6516 10.3788 43.6798 10.5069 43.6798C10.8336 43.6798 11.1474 43.4967 11.2989 43.1828C11.5101 42.7455 11.3268 42.2203 10.8897 42.0091Z" fill="#449584"></path><path d="M14.5691 39.6142L6.89742 35.9106C6.46019 35.6996 5.93484 35.8828 5.72378 36.3201C5.51284 36.7572 5.69613 37.2827 6.13324 37.4937L13.8049 41.1973C13.9281 41.2567 14.0583 41.285 14.1864 41.285C14.5131 41.285 14.8269 41.1019 14.9784 40.788C15.1895 40.3506 15.0062 39.8252 14.5691 39.6142Z" fill="#449584"></path></g><defs><clipPath id="clip0_2644_5862"><rect width="60" height="60" fill="white"></rect></clipPath></defs></svg>