<svg xmlns="http://www.w3.org/2000/svg" width="60" height="60" viewBox="0 0 60 60" fill="none"><path d="M52.8001 9.13648C53.991 9.13648 54.9546 8.17285 54.9546 6.98194C54.9546 5.79103 53.991 4.82739 52.8001 4.82739C51.6091 4.82739 50.6455 5.79103 50.6455 6.98194C50.6455 8.17285 51.6182 9.13648 52.8001 9.13648ZM52.8001 6.36376C53.1455 6.36376 53.4273 6.64557 53.4273 6.99103C53.4273 7.33648 53.1455 7.6183 52.8001 7.6183C52.4455 7.6183 52.1728 7.34557 52.1728 6.99103C52.1728 6.63648 52.4546 6.36376 52.8001 6.36376Z" fill="#449584"></path><path d="M55.191 1.34546H10.9001C9.21827 1.34546 7.84555 2.71819 7.84555 4.4V9.06364H4.80918C3.12737 9.06364 1.75464 10.4364 1.75464 12.1182V50.4182C1.75464 52.1 3.12737 53.4727 4.80918 53.4727H25.1092V57.8909C25.1092 58.3091 25.4546 58.6545 25.8728 58.6545H40.2183C40.6365 58.6545 40.9819 58.3091 40.9819 57.8909V53.4727H49.1001C50.7819 53.4727 52.1546 52.1 52.1546 50.4182V45.7546H55.191C56.8728 45.7546 58.2455 44.3818 58.2455 42.7V4.4C58.2455 2.71819 56.8728 1.34546 55.191 1.34546ZM9.37282 4.4C9.37282 3.55455 10.0637 2.87273 10.9001 2.87273H55.191C56.0365 2.87273 56.7183 3.56364 56.7183 4.4V11.1H27.7365L24.3274 7.56364C24.0637 7.29091 23.7001 7.13637 23.3274 7.13637H15.8183C15.0546 7.13637 14.4274 7.76364 14.4274 8.52728V11.1H9.37282V4.4ZM4.80918 51.9546C3.96373 51.9546 3.28191 51.2636 3.28191 50.4273V12.1182C3.28191 11.2727 3.97282 10.5909 4.80918 10.5909H7.84555V42.7091C7.84555 44.3909 9.21827 45.7636 10.9001 45.7636H27.4819C27.7819 46.3455 27.9183 47 27.8637 47.6727H26.6819C25.8092 47.6727 25.1092 48.3818 25.1092 49.2455V51.9546H4.80918ZM32.291 35.9636C32.4455 35.6909 32.7274 35.5182 33.0455 35.5182C33.5183 35.5182 33.9001 35.9 33.9001 36.3727C33.9001 36.6818 33.7365 36.9636 33.4728 37.1182C33.1819 37.2909 32.8365 37.2727 32.4819 37.0727C32.4365 37.0455 32.391 37.0091 32.3728 36.9636C32.0819 36.5 32.2001 36.1364 32.291 35.9636ZM32.2819 34.1364C31.7274 34.3273 31.2546 34.7 30.9637 35.2273C30.5274 36.0091 30.5819 36.9636 31.091 37.7818C31.2546 38.0364 31.4728 38.2455 31.7365 38.4C32.1546 38.6364 32.6092 38.7636 33.0546 38.7636C33.4728 38.7636 33.8819 38.6546 34.2455 38.4455C34.9728 38.0182 35.4274 37.2273 35.4274 36.3818C35.4274 35.3364 34.7455 34.4546 33.8092 34.1364V30.2091L40.5637 42.4C40.5546 42.4091 40.5455 42.4273 40.5183 42.4364C38.1274 43.0546 36.5637 45.2909 36.691 47.6727H29.4092C29.5455 45.2818 27.9728 43.0455 25.5365 42.3636L32.2819 30.2091V34.1364ZM39.4546 57.1273H26.6365L26.6819 49.1909H39.4092C39.4365 49.1909 39.4546 49.2091 39.4546 49.2364V57.1273ZM50.6274 50.4182C50.6274 51.2636 49.9365 51.9455 49.1001 51.9455H40.9819V49.2364C40.9819 48.3636 40.2728 47.6636 39.4092 47.6636H38.2274C38.1728 46.9909 38.3183 46.3364 38.6092 45.7546H50.6274V50.4182ZM55.191 44.2364H40.091C40.3365 44.1 40.6001 43.9818 40.891 43.9091C41.3728 43.7818 41.7637 43.4455 41.9637 42.9909C42.1546 42.5455 42.1274 42.0455 41.891 41.6182L34.0728 27.5364C33.8728 27.1636 33.4819 26.9273 33.0546 26.9273C32.6183 26.9364 32.2274 27.1546 32.0183 27.5273L24.191 41.6182C23.9546 42.0455 23.9365 42.5546 24.1274 43C24.3183 43.4546 24.7092 43.7818 25.191 43.9091C25.4819 43.9818 25.7365 44.1 25.991 44.2364H10.9001C10.0546 44.2364 9.37282 43.5455 9.37282 42.7091V12.6273H14.5546C15.3183 12.6273 15.9455 12 15.9455 11.2364V8.66364H23.2637L26.6728 12.2C26.9365 12.4727 27.3001 12.6273 27.6728 12.6273H56.7183V42.7C56.7183 43.5455 56.0365 44.2364 55.191 44.2364Z" fill="#449584"></path><path d="M47.6001 9.13648C48.791 9.13648 49.7546 8.17285 49.7546 6.98194C49.7546 5.79103 48.791 4.82739 47.6001 4.82739C46.4092 4.82739 45.4456 5.79103 45.4456 6.98194C45.4456 8.17285 46.4092 9.13648 47.6001 9.13648ZM47.6001 6.36376C47.9456 6.36376 48.2274 6.64557 48.2274 6.99103C48.2274 7.33648 47.9456 7.6183 47.6001 7.6183C47.2456 7.6183 46.9728 7.34557 46.9728 6.99103C46.9728 6.63648 47.2546 6.36376 47.6001 6.36376Z" fill="#449584"></path><path d="M42.3911 9.13648C43.582 9.13648 44.5457 8.17285 44.5457 6.98194C44.5457 5.79103 43.582 4.82739 42.3911 4.82739C41.2002 4.82739 40.2366 5.79103 40.2366 6.98194C40.2366 8.17285 41.2002 9.13648 42.3911 9.13648ZM42.3911 6.36376C42.7366 6.36376 43.0184 6.64557 43.0184 6.99103C43.0184 7.33648 42.7366 7.6183 42.3911 7.6183C42.0366 7.6183 41.7638 7.34557 41.7638 6.99103C41.7638 6.63648 42.0457 6.36376 42.3911 6.36376Z" fill="#449584"></path><path d="M47.7636 19.2817C47.3182 19.7272 47.0364 20.2908 46.9273 20.8908H36.2455V19.6908C36.2455 18.8726 35.5818 18.209 34.7636 18.209H31.3182C30.5 18.209 29.8364 18.8726 29.8364 19.6908V20.8908H19.1636C19.0636 20.2999 18.7818 19.7363 18.3273 19.2726C17.1727 18.1363 15.2 18.1544 14.0727 19.2817C13.5 19.8544 13.1909 20.609 13.1909 21.409C13.1909 22.2181 13.5091 22.9817 14.0727 23.5363C14.6455 24.1272 15.4091 24.4272 16.2 24.4272C16.7 24.4272 17.2091 24.309 17.6909 24.0635C18.2091 23.7999 18.6364 23.3635 18.8909 22.8272C18.9546 22.6908 19.0091 22.5544 19.0546 22.4181H26.4636C22.4364 24.3817 19.4 28.0726 18.3455 32.5272H17.1636C16.3455 32.5272 15.6818 33.1908 15.6818 34.009V37.4544C15.6818 38.2726 16.3455 38.9363 17.1636 38.9363H20.6091C21.4273 38.9363 22.0909 38.2726 22.0909 37.4544V34.009C22.0909 33.1908 21.4273 32.5272 20.6091 32.5272H19.9182C21.1909 27.7272 25.0364 23.9635 29.8636 22.7999V23.1272C29.8636 23.9453 30.5273 24.609 31.3455 24.609H34.7909C35.6091 24.609 36.2727 23.9453 36.2727 23.1272V22.7999C41.0909 23.9635 44.9364 27.7272 46.2182 32.5272H45.5909C44.7727 32.5272 44.1091 33.1908 44.1091 34.009V37.4544C44.1091 38.2726 44.7727 38.9363 45.5909 38.9363H49.0364C49.8546 38.9363 50.5182 38.2726 50.5182 37.4544V34.009C50.5182 33.1908 49.8546 32.5272 49.0364 32.5272H47.7909C46.7273 28.0726 43.6909 24.3726 39.6727 22.4181H47.1C47.2455 22.8363 47.4818 23.2181 47.8 23.5363C48.3727 24.1272 49.1364 24.4272 49.9273 24.4272C50.4273 24.4272 50.9364 24.309 51.4182 24.0635C51.9364 23.7999 52.3636 23.3635 52.6182 22.8272C53.2091 21.5817 53 20.2272 52.0636 19.2726C50.8727 18.1453 48.9 18.1544 47.7636 19.2817ZM17.5 22.1817C17.3909 22.3999 17.2091 22.5908 16.9909 22.6999C16.2 23.0999 15.5182 22.8453 15.1455 22.4544C14.8636 22.1817 14.7091 21.809 14.7091 21.409C14.7091 21.0181 14.8636 20.6453 15.1455 20.3544C15.4273 20.0726 15.8 19.9181 16.2 19.9181C16.5909 19.9181 16.9727 20.0726 17.2455 20.3453C17.7182 20.8363 17.8091 21.5181 17.5 22.1817ZM20.5909 37.409L17.1909 37.4544L17.1455 34.0544H20.5455L20.5909 37.409ZM49.0091 37.409L45.6091 37.4544L45.5636 34.0544H48.9636L49.0091 37.409ZM31.3727 23.1363L31.3546 21.9908C31.3727 21.909 31.3727 21.8272 31.3636 21.7363V21.7272C31.3636 21.6999 31.3818 21.6817 31.3818 21.6544C31.3818 21.609 31.3636 21.5726 31.3546 21.5363L31.3273 19.7453H34.7273L34.7546 21.5363C34.7455 21.5817 34.7273 21.6181 34.7273 21.6635C34.7273 21.6908 34.7364 21.709 34.7455 21.7363V21.7453C34.7273 21.8635 34.7364 21.9726 34.7636 22.0726L34.7818 23.0999L31.3727 23.1363ZM51.2 22.1817C51.0909 22.3999 50.9091 22.5908 50.6909 22.6999C49.9 23.0999 49.2182 22.8453 48.8455 22.4544C48.5636 22.1817 48.4091 21.809 48.4091 21.409C48.4091 21.0181 48.5636 20.6453 48.8455 20.3544C49.1273 20.0726 49.5 19.9181 49.9 19.9181C50.2909 19.9181 50.6727 20.0726 50.9455 20.3453C51.4182 20.8363 51.5091 21.5181 51.2 22.1817Z" fill="#449584"></path></svg>