<?xml version="1.0" encoding="UTF-8"?><svg id="Camada_2" xmlns="http://www.w3.org/2000/svg" xmlns:xlink="http://www.w3.org/1999/xlink" viewBox="0 0 184.28 35"><defs><style>.cls-1{fill:#fbb360;}.cls-2{fill:#fff;}.cls-3{fill:none;filter:url(#drop-shadow-1);}.cls-4{fill:#468bf8;}.cls-5{fill:#ff8e05;}</style><filter id="drop-shadow-1" filterUnits="userSpaceOnUse"><feOffset dx=".5" dy=".5"/><feGaussianBlur result="blur" stdDeviation=".5"/><feFlood flood-color="#4c4c4c" flood-opacity=".3"/><feComposite in2="blur" operator="in"/><feComposite in="SourceGraphic"/></filter></defs><g id="Logo_Site"><path class="cls-4" d="m0,13.64h7.51v21.36H0V13.64Z"/><path class="cls-4" d="m13.64,0v7.71h5.73c6.7,2.49,6.74,10.41.2,13.05h-9.1c3.23,4.75,6.46,9.49,9.69,14.24h9.29c-1.85-2.7-3.69-5.4-5.54-8.11,5.21-1.57,7.92-8.79,7.91-10.28C33.55,7.19,26.18.89,19.97,0h-6.33Z"/><g id="Dobra" class="cls-3"><path class="cls-5" d="m13.45,0C8.96,4.48,4.48,8.96,0,13.45h7.51v-5.73h5.93V0Z"/><rect class="cls-1" x="7.51" y="7.69" width="5.93" height="5.76"/></g><path class="cls-2" d="m40.02,34.6c-1.26,0-2.4-.29-3.42-.87-1.02-.58-1.83-1.36-2.42-2.35-.6-.98-.9-2.09-.9-3.32s.29-2.34.88-3.33c.59-.99,1.4-1.78,2.42-2.36,1.03-.58,2.17-.87,3.43-.87s2.4.29,3.43.87c1.03.58,1.83,1.37,2.42,2.36.59.99.88,2.1.88,3.33s-.29,2.33-.88,3.32c-.59.99-1.39,1.77-2.41,2.35-1.02.58-2.16.87-3.44.87Zm0-2.88c.66,0,1.26-.16,1.78-.48.52-.32.94-.76,1.26-1.32.31-.56.47-1.18.47-1.85s-.16-1.32-.47-1.87c-.31-.55-.74-.99-1.26-1.32-.53-.33-1.12-.5-1.78-.5s-1.24.17-1.77.5c-.53.33-.95.77-1.26,1.32-.31.55-.46,1.17-.46,1.87s.15,1.3.46,1.85c.31.56.73,1,1.26,1.32.53.32,1.12.48,1.77.48Z"/><path class="cls-2" d="m48.79,34.35v-12.62c1.11.32,2.21.65,3.32.97.9-.81,2-1.21,3.29-1.21.82,0,1.56.17,2.2.5.65.33,1.18.8,1.6,1.39.52-.61,1.13-1.08,1.83-1.41.7-.32,1.48-.48,2.34-.48.95,0,1.79.21,2.51.64.72.43,1.28,1.02,1.7,1.77.41.75.62,1.63.62,2.63v7.82h-3.29v-7.34c0-.82-.22-1.47-.65-1.95-.44-.48-1.02-.71-1.74-.71-.5,0-.96.11-1.37.31-.41.21-.76.53-1.05.94.02.15.03.29.05.44.02.15.02.31.02.48v7.82h-3.32v-7.34c0-.82-.21-1.47-.64-1.95-.43-.48-1.01-.71-1.73-.71-.5,0-.95.1-1.34.29-.4.19-.73.48-1.01.87v8.84h-3.32Z"/><path class="cls-2" d="m70.71,34.35v-12.62c1.11.32,2.21.65,3.32.97.9-.81,2-1.21,3.29-1.21.82,0,1.56.17,2.2.5.65.33,1.18.8,1.6,1.39.52-.61,1.13-1.08,1.83-1.41.7-.32,1.48-.48,2.34-.48.95,0,1.79.21,2.51.64.72.43,1.28,1.02,1.7,1.77.41.75.62,1.63.62,2.63v7.82h-3.29v-7.34c0-.82-.22-1.47-.65-1.95-.44-.48-1.02-.71-1.74-.71-.5,0-.96.11-1.37.31-.41.21-.76.53-1.05.94.02.15.03.29.05.44.02.15.02.31.02.48v7.82h-3.32v-7.34c0-.82-.21-1.47-.64-1.95-.43-.48-1.01-.71-1.73-.71-.5,0-.95.1-1.34.29-.4.19-.73.48-1.01.87v8.84h-3.32Z"/><path class="cls-5" d="m94.29,20.23c-.52,0-.96-.19-1.33-.56-.37-.37-.56-.82-.56-1.33s.19-.98.56-1.34c.37-.36.82-.54,1.33-.54s.98.18,1.34.54c.36.36.55.81.55,1.34s-.18.96-.55,1.33c-.36.37-.81.56-1.34.56Z"/><rect class="cls-2" x="92.64" y="21.73" width="3.32" height="12.62"/><path class="cls-2" d="m104.73,34.6c-1.26,0-2.4-.29-3.43-.87-1.03-.58-1.84-1.36-2.43-2.35-.6-.98-.9-2.09-.9-3.32s.29-2.33.86-3.32c.57-.99,1.35-1.77,2.34-2.35.98-.58,2.08-.87,3.29-.87s2.29.3,3.22.9c.94.6,1.68,1.41,2.22,2.42.54,1.02.81,2.17.81,3.46v.87h-9.35c.15.5.38.95.71,1.36.33.4.74.72,1.24.94.49.23,1.02.34,1.59.34.76,0,1.34-.18,1.56-.27.32-.12.58-.26.75-.37.46.83.92,1.65,1.38,2.48-.27.15-.65.34-1.11.51-.37.13-1.39.44-2.75.44Zm-3.42-7.8h6.13c-.11-.5-.32-.94-.62-1.32-.3-.38-.65-.68-1.07-.9s-.87-.33-1.37-.33-.99.11-1.41.31c-.42.21-.77.5-1.05.88-.28.38-.49.83-.62,1.34Z"/><path class="cls-2" d="m124.87,34.62c-1.26,0-2.43-.22-3.51-.67-1.08-.44-2.03-1.07-2.85-1.87-.82-.8-1.45-1.73-1.91-2.79-.46-1.06-.69-2.2-.69-3.43s.23-2.37.69-3.43c.46-1.06,1.1-1.99,1.91-2.79.82-.8,1.76-1.42,2.85-1.87,1.08-.44,2.25-.67,3.51-.67s2.43.22,3.52.67c1.09.44,2.04,1.07,2.86,1.87.82.8,1.45,1.73,1.9,2.79.45,1.06.68,2.2.68,3.43s-.23,2.37-.68,3.43c-.45,1.06-1.09,1.99-1.9,2.79-.82.8-1.77,1.42-2.86,1.87-1.09.44-2.27.67-3.52.67Zm0-3.22c.78,0,1.49-.14,2.13-.42.65-.28,1.21-.67,1.7-1.16.48-.49.86-1.08,1.14-1.76.27-.68.41-1.4.41-2.18s-.14-1.52-.41-2.19c-.27-.67-.65-1.25-1.14-1.74-.48-.49-1.05-.88-1.7-1.16-.65-.28-1.36-.42-2.13-.42s-1.46.14-2.11.42c-.65.28-1.21.67-1.7,1.16-.48.49-.86,1.07-1.14,1.74-.27.67-.41,1.39-.41,2.17s.14,1.53.41,2.2c.27.68.65,1.26,1.14,1.76.48.49,1.05.88,1.7,1.16.65.28,1.35.42,2.11.42Z"/><path class="cls-2" d="m137.42,34.35v-9.86h-2.81c.94-.92,1.87-1.84,2.81-2.76v-1.21c0-1.42.41-2.51,1.24-3.26.82-.75,2.01-1.13,3.56-1.13.34,0,.69.02,1.04.05.36.03.66.09.92.17v2.79c-.31-.06-.57-.11-.8-.15-.23-.03-.48-.05-.75-.05-.63,0-1.1.13-1.42.4s-.47.68-.47,1.25v1.14h3.44c-1.15.92-2.29,1.84-3.44,2.76v9.86h-3.32Z"/><path class="cls-2" d="m146.56,34.35v-9.86c-1.19.02-2.37.05-3.56.07,1.19-.95,2.37-1.89,3.56-2.84v-1.21c0-1.42.41-2.51,1.24-3.26.82-.75,2.01-1.13,3.56-1.13.34,0,.69.02,1.04.05.36.03.66.09.92.17v2.79c-.31-.06-.57-.11-.8-.15-.23-.03-.48-.05-.75-.05-.63,0-1.1.13-1.42.4s-.47.68-.47,1.25v1.14h3.44v2.76h-3.44v9.86h-3.32Z"/><path class="cls-5" d="m156.71,20.23c-.52,0-.96-.19-1.33-.56-.37-.37-.56-.82-.56-1.33s.19-.98.56-1.34c.37-.36.82-.54,1.33-.54s.98.18,1.34.54c.36.36.55.81.55,1.34s-.18.96-.55,1.33c-.36.37-.81.56-1.34.56Z"/><rect class="cls-2" x="155.06" y="21.73" width="3.32" height="12.62"/><path class="cls-2" d="m166.73,34.6c-1.24,0-2.37-.29-3.37-.86-1-.57-1.79-1.36-2.37-2.35-.58-.99-.87-2.1-.87-3.33s.29-2.36.87-3.34c.58-.99,1.37-1.77,2.37-2.35,1-.58,2.12-.87,3.37-.87,1,0,1.96.19,2.87.58.46.19.93.5,1.37.78.05.03.08.05.11.07-.46.92-.92,1.84-1.38,2.75-.24-.26-.64-.64-1.24-.92-.77-.37-1.46-.38-1.66-.38-.65,0-1.22.16-1.73.48-.51.32-.91.76-1.21,1.31-.3.55-.45,1.18-.45,1.89s.15,1.3.45,1.85c.3.56.71.99,1.25,1.31.53.31,1.12.47,1.77.47.57,0,1.09-.12,1.59-.35.49-.23.96-.59,1.42-1.05.4.94.8,1.88,1.2,2.82-.39.29-.9.62-1.54.9-.8.35-1.46.59-2.81.59Z"/><path class="cls-2" d="m178.3,34.6c-1.26,0-2.4-.29-3.43-.87-1.03-.58-1.84-1.36-2.43-2.35-.6-.98-.9-2.09-.9-3.32s.29-2.33.86-3.32c.57-.99,1.35-1.77,2.34-2.35.98-.58,2.08-.87,3.29-.87s2.29.3,3.22.9c.94.6,1.68,1.41,2.22,2.42.54,1.02.81,2.17.81,3.46v.87h-9.35c.15.5.38.95.71,1.36.33.4.74.72,1.24.94.49.23,1.02.34,1.59.34.32,0,.89,0,1.56-.27.3-.12.53-.26.68-.37.46.83.92,1.65,1.38,2.48-.25.15-.6.34-1.04.51-1.21.46-2.24.44-2.75.44Zm-3.42-7.8h6.13c-.11-.5-.32-.94-.62-1.32-.3-.38-.65-.68-1.07-.9s-.87-.33-1.37-.33-.99.11-1.41.31c-.42.21-.77.5-1.05.88-.28.38-.49.83-.62,1.34Z"/><rect class="cls-2" x="153.19" y="21.73" width="1.93" height="2.76"/></g></svg>