<?xml version="1.0" encoding="UTF-8"?><svg id="Camada_2" xmlns="http://www.w3.org/2000/svg" xmlns:xlink="http://www.w3.org/1999/xlink" viewBox="0 0 188.87 37.51"><defs><style>.cls-1{letter-spacing:.05em;}.cls-2{fill:#fbb360;}.cls-3,.cls-4{fill:#fff;}.cls-5{fill:none;filter:url(#drop-shadow-1);}.cls-6{letter-spacing:.01em;}.cls-7{letter-spacing:.06em;}.cls-4{font-family:RedHatDisplay-Light, 'Red Hat Display';font-size:10px;font-weight:300;}.cls-8{fill:#468bf8;}.cls-9{letter-spacing:-.02em;}.cls-10{fill:#1d1d1b;stroke:#ff8e05;stroke-miterlimit:10;stroke-width:.5px;}.cls-11{fill:#ff8e05;}.cls-12{letter-spacing:.04em;}.cls-13{letter-spacing:-.08em;}.cls-14{letter-spacing:.07em;}.cls-15{letter-spacing:.08em;}.cls-16{letter-spacing:0em;}</style><filter id="drop-shadow-1" filterUnits="userSpaceOnUse"><feOffset dx=".5" dy=".5"/><feGaussianBlur result="blur" stdDeviation=".5"/><feFlood flood-color="#4c4c4c" flood-opacity=".3"/><feComposite in2="blur" operator="in"/><feComposite in="SourceGraphic"/></filter></defs><g id="Camada_12"><path class="cls-8" d="m0,13.67h7.51v21.36H0V13.67Z"/><path class="cls-8" d="m13.64.02v7.71h5.73c6.7,2.49,6.74,10.41.2,13.05h-9.1c3.23,4.75,6.46,9.49,9.69,14.24h9.29c-1.85-2.7-3.69-5.4-5.54-8.11,5.21-1.57,7.92-8.79,7.91-10.28C33.55,7.21,26.18.91,19.97.02h-6.33Z"/><g id="Dobra" class="cls-5"><path class="cls-11" d="m13.45.02C8.96,4.5,4.48,8.99,0,13.47h7.51v-5.73h5.93V.02Z"/><rect class="cls-2" x="7.51" y="7.71" width="5.93" height="5.76"/></g><path class="cls-3" d="m43.62,15.88V1.1h7.22c1,0,1.88.19,2.65.58.77.39,1.37.93,1.8,1.62.43.69.64,1.49.64,2.39s-.26,1.77-.78,2.49c-.14.2-.32.42-.54.62-1.05.95-2.39.98-2.9.96,1.54,2.04,3.08,4.09,4.62,6.13h-3.42c-2.08-2.76-4.16-5.53-6.23-8.29v8.4-.11s-3.06,0-3.06,0Zm3.06-8.17h3.89c.69,0,1.24-.18,1.66-.55.42-.37.62-.84.62-1.44s-.21-1.07-.62-1.44c-.42-.37-.97-.55-1.66-.55h-3.89v3.97Z"/><path class="cls-3" d="m62.5,16.09c-1.1,0-2.09-.25-2.98-.76-.89-.51-1.59-1.19-2.11-2.05-.52-.86-.78-1.82-.78-2.89s.26-2.04.77-2.9c.51-.87,1.22-1.55,2.11-2.06.89-.51,1.89-.76,2.99-.76s2.09.25,2.99.76c.89.51,1.6,1.19,2.11,2.06.51.87.77,1.83.77,2.9s-.26,2.03-.77,2.89c-.51.86-1.21,1.54-2.1,2.05-.89.51-1.89.76-3,.76Zm0-2.51c.58,0,1.09-.14,1.55-.42.46-.28.82-.67,1.1-1.15.27-.49.41-1.02.41-1.62s-.14-1.15-.41-1.63c-.27-.48-.64-.86-1.1-1.15-.46-.29-.98-.43-1.55-.43s-1.08.14-1.54.43c-.46.29-.83.67-1.1,1.15-.27.48-.4,1.02-.4,1.63s.13,1.13.4,1.62c.27.49.63.87,1.1,1.15.46.28.98.42,1.54.42Z"/><path class="cls-3" d="m70.14,15.88V4.88c.96.28,1.93.56,2.89.84.79-.7,1.75-1.06,2.87-1.06.72,0,1.36.14,1.92.43.56.29,1.03.69,1.39,1.21.45-.54.98-.94,1.59-1.23.61-.28,1.29-.42,2.04-.42.83,0,1.56.19,2.19.56.63.37,1.12.89,1.48,1.54.36.65.54,1.42.54,2.29v6.82h-2.87v-6.4c0-.72-.19-1.28-.57-1.7-.38-.42-.89-.62-1.52-.62-.44,0-.83.09-1.19.27-.36.18-.67.46-.92.82.01.13.03.25.04.38.01.13.02.27.02.42v6.82h-2.89v-6.4c0-.72-.19-1.28-.56-1.7-.37-.42-.88-.62-1.51-.62-.44,0-.83.08-1.17.25-.35.17-.64.42-.88.76v7.71h-2.89Z"/><path class="cls-3" d="m89.25,15.88V4.88c.96.28,1.93.56,2.89.84.79-.7,1.75-1.06,2.87-1.06.72,0,1.36.14,1.92.43.56.29,1.03.69,1.39,1.21.45-.54.98-.94,1.59-1.23.61-.28,1.29-.42,2.04-.42.83,0,1.56.19,2.19.56.63.37,1.12.89,1.48,1.54.36.65.54,1.42.54,2.29v6.82h-2.87v-6.4c0-.72-.19-1.28-.57-1.7-.38-.42-.89-.62-1.52-.62-.44,0-.83.09-1.19.27-.36.18-.67.46-.92.82.01.13.03.25.04.38.01.13.02.27.02.42v6.82h-2.89v-6.4c0-.72-.19-1.28-.56-1.7-.37-.42-.88-.62-1.51-.62-.44,0-.83.08-1.17.25-.35.17-.64.42-.88.76v7.71h-2.89Z"/><path class="cls-11" d="m109.8,3.57c-.45,0-.84-.16-1.16-.49-.32-.32-.49-.71-.49-1.16s.16-.86.49-1.17c.32-.32.71-.48,1.16-.48s.86.16,1.17.48c.32.32.48.71.48,1.17s-.16.84-.48,1.16c-.32.32-.71.49-1.17.49Z"/><rect class="cls-3" x="108.37" y="4.88" width="2.89" height="11"/><path class="cls-3" d="m118.91,16.09c-1.1,0-2.09-.25-2.99-.76-.89-.51-1.6-1.19-2.12-2.05-.52-.86-.78-1.82-.78-2.89s.25-2.03.75-2.89c.5-.86,1.18-1.54,2.04-2.05.86-.51,1.82-.76,2.87-.76s1.99.26,2.81.78c.82.52,1.46,1.23,1.93,2.11.47.89.71,1.89.71,3.02v.76h-8.15c.13.44.33.83.62,1.18.29.35.65.63,1.08.82.43.2.89.3,1.38.3.67,0,1.17-.16,1.36-.23.28-.1.5-.23.66-.32.4.72.8,1.44,1.2,2.16-.24.13-.56.3-.97.44-.32.12-1.21.38-2.4.38Zm-2.98-6.8h5.34c-.1-.44-.28-.82-.54-1.15-.26-.33-.57-.59-.93-.78s-.76-.28-1.19-.28-.86.09-1.22.27c-.37.18-.67.44-.92.77-.25.33-.43.72-.54,1.17Z"/><path class="cls-3" d="m136.47,16.11c-1.1,0-2.12-.19-3.06-.58-.94-.39-1.77-.93-2.48-1.63-.71-.7-1.27-1.51-1.67-2.43-.4-.92-.6-1.92-.6-2.99s.2-2.07.6-2.99c.4-.92.96-1.73,1.67-2.43.71-.7,1.54-1.24,2.48-1.63.94-.39,1.96-.58,3.06-.58s2.12.19,3.07.58c.95.39,1.78.93,2.49,1.63.71.7,1.26,1.51,1.66,2.43.39.92.59,1.92.59,2.99s-.2,2.07-.59,2.99c-.39.92-.95,1.73-1.66,2.43-.71.7-1.54,1.24-2.49,1.63-.95.39-1.97.58-3.07.58Zm0-2.81c.68,0,1.3-.12,1.86-.37.56-.25,1.06-.58,1.48-1.01.42-.43.75-.94.99-1.53.24-.59.36-1.22.36-1.9s-.12-1.33-.36-1.91c-.24-.58-.57-1.09-.99-1.52-.42-.43-.92-.77-1.48-1.01-.56-.25-1.18-.37-1.86-.37s-1.27.12-1.84.37c-.56.25-1.06.58-1.48,1.01-.42.43-.75.94-.99,1.52-.24.58-.36,1.21-.36,1.89s.12,1.33.36,1.92c.24.59.57,1.1.99,1.53.42.43.92.77,1.48,1.01.56.25,1.18.37,1.84.37Z"/><path class="cls-3" d="m147.41,15.88V7.29h-2.45c.82-.8,1.63-1.61,2.45-2.41v-1.06c0-1.24.36-2.19,1.08-2.84.72-.65,1.75-.98,3.1-.98.3,0,.6.01.91.04.31.03.58.08.8.15v2.43c-.27-.06-.5-.1-.7-.13-.2-.03-.42-.04-.65-.04-.55,0-.96.12-1.24.35s-.41.6-.41,1.09v.99h3c-1,.8-2,1.61-3,2.41v8.6h-2.89Z"/><path class="cls-3" d="m155.38,15.88V7.29l-3.1.06c1.03-.82,2.07-1.65,3.1-2.47v-1.06c0-1.24.36-2.19,1.08-2.84.72-.65,1.75-.98,3.1-.98.3,0,.6.01.91.04.31.03.58.08.8.15v2.43c-.27-.06-.5-.1-.7-.13-.2-.03-.42-.04-.65-.04-.55,0-.96.12-1.24.35s-.41.6-.41,1.09v.99h3v2.41h-3v8.6h-2.89Z"/><path class="cls-11" d="m164.23,3.57c-.45,0-.84-.16-1.16-.49-.32-.32-.49-.71-.49-1.16s.16-.86.49-1.17c.32-.32.71-.48,1.16-.48s.86.16,1.17.48c.32.32.48.71.48,1.17s-.16.84-.48,1.16c-.32.32-.71.49-1.17.49Z"/><rect class="cls-3" x="162.79" y="4.88" width="2.89" height="11"/><path class="cls-3" d="m172.96,16.09c-1.08,0-2.06-.25-2.94-.75-.87-.5-1.56-1.18-2.07-2.05-.51-.87-.76-1.83-.76-2.9s.25-2.06.76-2.91c.51-.86,1.2-1.54,2.07-2.05.87-.51,1.85-.76,2.94-.76.87,0,1.71.17,2.5.51.4.17.81.44,1.19.68.04.02.07.05.09.06-.4.8-.8,1.6-1.2,2.4-.21-.23-.56-.56-1.08-.8-.67-.32-1.27-.33-1.45-.33-.56,0-1.07.14-1.51.42-.44.28-.8.66-1.06,1.14-.26.48-.39,1.03-.39,1.65s.13,1.13.39,1.62c.26.49.62.87,1.09,1.14.46.27.98.41,1.54.41.49,0,.95-.1,1.38-.31.43-.2.84-.51,1.24-.92.35.82.7,1.64,1.05,2.46-.34.26-.78.54-1.34.78-.7.3-1.27.52-2.45.52Z"/><path class="cls-3" d="m183.05,16.09c-1.1,0-2.09-.25-2.99-.76-.89-.51-1.6-1.19-2.12-2.05-.52-.86-.78-1.82-.78-2.89s.25-2.03.75-2.89c.5-.86,1.18-1.54,2.04-2.05.86-.51,1.82-.76,2.87-.76s1.99.26,2.81.78c.82.52,1.46,1.23,1.93,2.11.47.89.71,1.89.71,3.02v.76h-8.15c.13.44.33.83.62,1.18.29.35.65.63,1.08.82.43.2.89.3,1.38.3.28,0,.78,0,1.36-.23.26-.11.46-.23.6-.32.4.72.8,1.44,1.2,2.16-.22.13-.52.3-.91.44-1.06.4-1.96.38-2.4.38Zm-2.98-6.8h5.34c-.1-.44-.28-.82-.54-1.15-.26-.33-.57-.59-.93-.78s-.76-.28-1.19-.28-.86.09-1.22.27c-.37.18-.67.44-.92.77-.25.33-.43.72-.54,1.17Z"/><rect class="cls-3" x="161.15" y="4.88" width="1.68" height="2.41"/><text class="cls-4" transform="translate(42.94 34.97)"><tspan class="cls-14" x="0" y="0">E</tspan><tspan class="cls-1" x="6.67" y="0">S</tspan><tspan class="cls-7" x="12.98" y="0">T</tspan><tspan class="cls-15" x="19.63" y="0">R</tspan><tspan class="cls-13" x="26.72" y="0">A</tspan><tspan class="cls-7" x="32.47" y="0">T</tspan><tspan class="cls-6" x="39.12" y="0">É</tspan><tspan class="cls-14" x="45.24" y="0">GIA E</tspan><tspan class="cls-12" x="73.25" y="0"> </tspan><tspan class="cls-7" x="75.81" y="0">T</tspan><tspan class="cls-16" x="82.46" y="0">E</tspan><tspan class="cls-7" x="88.58" y="0">CNO</tspan><tspan class="cls-9" x="112.99" y="0">L</tspan><tspan class="cls-7" x="118.72" y="0">OGIA</tspan></text><line class="cls-10" x1="43.62" y1="22.16" x2="188.62" y2="22.16"/></g></svg>