<?xml version="1.0" encoding="UTF-8"?><svg id="Camada_2" xmlns="http://www.w3.org/2000/svg" xmlns:xlink="http://www.w3.org/1999/xlink" viewBox="0 0 109.2 35"><defs><style>.cls-1{fill:#fbb360;}.cls-2{fill:#fff;}.cls-3{fill:none;filter:url(#drop-shadow-1);}.cls-4{fill:#468bf8;}.cls-5{fill:#ff8e05;}</style><filter id="drop-shadow-1" filterUnits="userSpaceOnUse"><feOffset dx=".5" dy=".5"/><feGaussianBlur result="blur" stdDeviation=".5"/><feFlood flood-color="#4c4c4c" flood-opacity=".3"/><feComposite in2="blur" operator="in"/><feComposite in="SourceGraphic"/></filter></defs><g id="Logo_Site"><path class="cls-4" d="m0,13.64h7.51v21.36H0V13.64Z"/><path class="cls-4" d="m13.64,0v7.71h5.73c6.7,2.49,6.74,10.41.2,13.05h-9.1c3.23,4.75,6.46,9.49,9.69,14.24h9.29c-1.85-2.7-3.69-5.4-5.54-8.11,5.21-1.57,7.92-8.79,7.91-10.28C33.55,7.19,26.18.89,19.97,0h-6.33Z"/><g id="Dobra" class="cls-3"><path class="cls-5" d="m13.45,0C8.96,4.48,4.48,8.96,0,13.45h7.51v-5.73h5.93V0Z"/><rect class="cls-1" x="7.51" y="7.69" width="5.93" height="5.76"/></g><path class="cls-2" d="m44.74,12.64V.81h5.78c.8,0,1.51.16,2.12.46.61.31,1.09.74,1.44,1.29.34.55.52,1.19.52,1.91s-.21,1.42-.63,1.99c-.11.16-.25.33-.43.49-.84.76-1.92.78-2.32.77,1.23,1.64,2.46,3.27,3.69,4.91h-2.74c-1.66-2.21-3.33-4.42-4.99-6.64v6.72-.09s-2.45,0-2.45,0Zm2.45-6.54h3.11c.55,0,.99-.15,1.33-.44.33-.29.5-.68.5-1.15s-.17-.86-.5-1.15c-.33-.29-.78-.44-1.33-.44h-3.11v3.18Z"/><path class="cls-2" d="m59.85,12.81c-.88,0-1.67-.2-2.38-.61-.71-.41-1.27-.95-1.69-1.64-.42-.69-.63-1.46-.63-2.32s.21-1.63.62-2.32c.41-.69.97-1.24,1.69-1.65.72-.41,1.51-.61,2.39-.61s1.68.2,2.39.61c.72.41,1.28.96,1.69,1.65.41.69.62,1.47.62,2.32s-.21,1.63-.62,2.32c-.41.69-.97,1.23-1.68,1.64-.71.41-1.51.61-2.4.61Zm0-2.01c.46,0,.88-.11,1.24-.34.37-.23.66-.53.88-.92.22-.39.33-.82.33-1.29s-.11-.92-.33-1.3c-.22-.38-.51-.69-.88-.92-.37-.23-.78-.35-1.24-.35s-.86.12-1.23.35c-.37.23-.67.54-.88.92-.21.38-.32.82-.32,1.3s.11.9.32,1.29c.21.39.51.7.88.92.37.23.78.34,1.23.34Z"/><path class="cls-2" d="m65.97,12.64V3.84c.77.23,1.54.45,2.32.68.63-.56,1.4-.85,2.3-.85.57,0,1.09.12,1.54.35.45.23.82.56,1.12.97.36-.43.79-.75,1.28-.98.49-.23,1.03-.34,1.63-.34.66,0,1.25.15,1.75.45.5.3.9.71,1.18,1.23.29.52.43,1.14.43,1.83v5.46h-2.3v-5.12c0-.57-.15-1.03-.46-1.36-.3-.33-.71-.5-1.22-.5-.35,0-.67.07-.96.22-.29.15-.53.37-.74.66.01.1.02.2.03.3.01.1.02.21.02.34v5.46h-2.32v-5.12c0-.57-.15-1.03-.45-1.36-.3-.33-.7-.5-1.21-.5-.35,0-.66.07-.94.2-.28.14-.51.34-.7.61v6.17h-2.32Z"/><path class="cls-2" d="m81.28,12.64V3.84c.77.23,1.54.45,2.32.68.63-.56,1.4-.85,2.3-.85.57,0,1.09.12,1.54.35.45.23.82.56,1.12.97.36-.43.79-.75,1.28-.98.49-.23,1.03-.34,1.63-.34.66,0,1.25.15,1.75.45.5.3.9.71,1.18,1.23.29.52.43,1.14.43,1.83v5.46h-2.3v-5.12c0-.57-.15-1.03-.46-1.36-.3-.33-.71-.5-1.22-.5-.35,0-.67.07-.96.22-.29.15-.53.37-.74.66.01.1.02.2.03.3.01.1.02.21.02.34v5.46h-2.32v-5.12c0-.57-.15-1.03-.45-1.36-.3-.33-.7-.5-1.21-.5-.35,0-.66.07-.94.2-.28.14-.51.34-.7.61v6.17h-2.32Z"/><path class="cls-5" d="m97.73,2.79c-.36,0-.67-.13-.93-.39-.26-.26-.39-.57-.39-.93s.13-.68.39-.94c.26-.25.57-.38.93-.38s.68.13.94.38c.25.25.38.57.38.94s-.13.67-.38.93c-.25.26-.57.39-.94.39Z"/><rect class="cls-2" x="96.58" y="3.84" width="2.32" height="8.81"/><path class="cls-2" d="m105.01,12.81c-.88,0-1.68-.2-2.39-.61-.72-.41-1.28-.95-1.7-1.64-.42-.69-.63-1.46-.63-2.32s.2-1.63.6-2.32c.4-.69.94-1.23,1.63-1.64.69-.41,1.45-.61,2.3-.61s1.59.21,2.25.63c.65.42,1.17.98,1.55,1.69.38.71.57,1.52.57,2.42v.61h-6.53c.1.35.27.67.5.95.23.28.52.5.86.66.34.16.71.24,1.11.24.53,0,.94-.13,1.09-.19.22-.08.4-.18.53-.26.32.58.64,1.15.96,1.73-.19.11-.45.24-.78.35-.26.09-.97.3-1.92.3Zm-2.38-5.44h4.28c-.08-.35-.22-.66-.43-.92-.21-.26-.46-.47-.74-.63s-.61-.23-.96-.23-.69.07-.98.22c-.29.15-.54.35-.74.62-.2.26-.34.58-.43.94Z"/><path class="cls-2" d="m53.24,34.25c-1.19,0-2.29-.21-3.31-.63-1.02-.42-1.91-1-2.68-1.76-.77-.75-1.37-1.63-1.8-2.62-.43-1-.65-2.07-.65-3.23s.22-2.23.65-3.23c.43-1,1.03-1.87,1.8-2.62.77-.75,1.66-1.34,2.68-1.76,1.02-.42,2.12-.63,3.31-.63s2.29.21,3.32.63c1.03.42,1.92,1,2.69,1.76.77.75,1.37,1.63,1.79,2.62.43,1,.64,2.07.64,3.23s-.21,2.23-.64,3.23c-.43,1-1.02,1.87-1.79,2.62-.77.75-1.67,1.34-2.69,1.76-1.03.42-2.13.63-3.32.63Zm0-3.03c.73,0,1.4-.13,2.01-.4.61-.27,1.14-.63,1.6-1.1.46-.46.81-1.02,1.07-1.65.26-.64.39-1.32.39-2.05s-.13-1.43-.39-2.06c-.26-.63-.62-1.18-1.07-1.64-.46-.46-.99-.83-1.6-1.1-.61-.27-1.28-.4-2.01-.4s-1.38.13-1.99.4c-.61.27-1.14.63-1.6,1.1-.46.46-.81,1.01-1.07,1.64-.26.63-.39,1.31-.39,2.04s.13,1.44.39,2.08c.26.64.62,1.19,1.07,1.65.46.46.99.83,1.6,1.1.61.27,1.27.4,1.99.4Z"/><path class="cls-2" d="m65.07,34v-9.29h-2.65c.88-.87,1.76-1.73,2.65-2.6v-1.14c0-1.34.39-2.36,1.16-3.07.78-.71,1.89-1.06,3.35-1.06.32,0,.65.02.98.05.33.03.62.08.87.16v2.62c-.29-.06-.54-.11-.75-.14-.21-.03-.45-.05-.71-.05-.59,0-1.04.13-1.33.38s-.45.64-.45,1.18v1.07h3.24c-1.08.87-2.16,1.73-3.24,2.6v9.29h-3.13Z"/><path class="cls-2" d="m73.67,34v-9.29c-1.12.02-2.24.05-3.35.07,1.12-.89,2.24-1.78,3.35-2.67v-1.14c0-1.34.39-2.36,1.16-3.07.78-.71,1.89-1.06,3.35-1.06.32,0,.65.02.98.05.33.03.62.08.87.16v2.62c-.29-.06-.54-.11-.75-.14-.21-.03-.45-.05-.71-.05-.59,0-1.04.13-1.33.38s-.45.64-.45,1.18v1.07h3.24v2.6h-3.24v9.29h-3.13Z"/><path class="cls-5" d="m83.23,20.69c-.49,0-.91-.17-1.25-.52-.35-.35-.52-.77-.52-1.26s.17-.92.52-1.27c.35-.34.77-.51,1.25-.51s.92.17,1.27.51c.34.34.51.76.51,1.27s-.17.91-.51,1.26c-.34.35-.76.52-1.27.52Z"/><rect class="cls-2" x="81.68" y="22.11" width="3.13" height="11.89"/><path class="cls-2" d="m92.67,34.22c-1.17,0-2.23-.27-3.17-.81-.94-.54-1.69-1.28-2.24-2.21-.55-.94-.82-1.98-.82-3.14s.27-2.22.82-3.15c.55-.93,1.29-1.67,2.24-2.21.94-.55,2-.82,3.17-.82.94,0,1.84.18,2.7.55.43.18.87.47,1.29.73.04.03.08.05.1.06-.43.86-.86,1.73-1.3,2.59-.22-.25-.6-.6-1.17-.87-.73-.34-1.37-.35-1.56-.35-.61,0-1.15.15-1.63.46-.48.3-.86.72-1.14,1.23-.28.52-.42,1.11-.42,1.78s.14,1.22.42,1.75c.28.52.67.94,1.18,1.23.5.3,1.06.44,1.67.44.53,0,1.03-.11,1.49-.33.46-.22.91-.55,1.33-.99.38.88.75,1.77,1.13,2.65-.37.28-.85.59-1.45.85-.75.33-1.37.56-2.65.56Z"/><path class="cls-2" d="m103.57,34.22c-1.19,0-2.26-.27-3.23-.82-.97-.55-1.73-1.29-2.29-2.21-.56-.93-.84-1.97-.84-3.13s.27-2.2.81-3.13c.54-.93,1.27-1.67,2.2-2.21.93-.55,1.96-.82,3.1-.82s2.15.28,3.03.84c.88.56,1.58,1.32,2.09,2.28.51.96.76,2.05.76,3.26v.82h-8.81c.14.47.36.9.67,1.28.31.38.7.68,1.16.89.46.21.96.32,1.49.32.3,0,.84,0,1.47-.25.28-.11.5-.25.64-.35.43.78.86,1.56,1.3,2.33-.24.14-.57.32-.98.48-1.14.44-2.11.41-2.59.41Zm-3.22-7.35h5.77c-.11-.47-.3-.89-.58-1.24-.28-.36-.62-.64-1-.84s-.82-.31-1.29-.31-.93.1-1.32.3c-.4.2-.73.48-.99.83-.27.36-.46.78-.58,1.27Z"/><rect class="cls-2" x="79.91" y="22.11" width="1.81" height="2.6"/></g></svg>