<?xml version="1.0" encoding="UTF-8"?>
<svg xmlns="http://www.w3.org/2000/svg" xmlns:xlink="http://www.w3.org/1999/xlink" width="28px" height="27px" viewBox="0 0 28 27" version="1.1">
<g id="surface1">
<path style=" stroke:none;fill-rule:nonzero;fill:rgb(100%,55.686275%,1.960784%);fill-opacity:1;" d="M 24.226562 10.230469 C 20.808594 8.371094 18.316406 4.574219 17.609375 0 C 16.917969 4.574219 14.425781 8.371094 11.023438 10.230469 C 10.359375 10.589844 8.710938 11.144531 8.710938 11.144531 C 8.710938 11.144531 10.359375 11.699219 11.023438 12.058594 C 14.441406 13.921875 16.933594 17.714844 17.640625 22.289062 C 18.332031 17.714844 20.824219 13.921875 24.226562 12.058594 C 24.890625 11.699219 26.542969 11.144531 26.542969 11.144531 C 26.542969 11.144531 24.890625 10.589844 24.226562 10.230469 Z M 24.226562 10.230469 "/>
<path style=" stroke:none;fill-rule:nonzero;fill:rgb(100%,55.686275%,1.960784%);fill-opacity:1;" d="M 10.152344 19.84375 C 8.132812 18.75 6.644531 16.5 6.234375 13.785156 C 5.820312 16.5 4.347656 18.75 2.328125 19.84375 C 1.929688 20.054688 0.957031 20.386719 0.957031 20.386719 C 0.957031 20.386719 1.929688 20.714844 2.328125 20.925781 C 4.347656 22.019531 5.835938 24.269531 6.25 26.984375 C 6.660156 24.269531 8.132812 22.019531 10.152344 20.925781 C 10.550781 20.714844 11.523438 20.386719 11.523438 20.386719 C 11.523438 20.386719 10.550781 20.054688 10.152344 19.84375 Z M 10.152344 19.84375 "/>
<path style=" stroke:none;fill-rule:nonzero;fill:rgb(100%,55.686275%,1.960784%);fill-opacity:1;" d="M 26.1875 20.398438 C 26.1875 21.046875 25.773438 21.570312 25.257812 21.570312 C 24.742188 21.570312 24.332031 21.046875 24.332031 20.398438 C 24.332031 19.753906 24.742188 19.230469 25.257812 19.230469 C 25.773438 19.230469 26.1875 19.753906 26.1875 20.398438 Z M 26.1875 20.398438 "/>
<path style=" stroke:none;fill-rule:nonzero;fill:rgb(100%,55.686275%,1.960784%);fill-opacity:1;" d="M 9.046875 4.363281 C 9.046875 5.011719 8.636719 5.535156 8.121094 5.535156 C 7.605469 5.535156 7.191406 5.011719 7.191406 4.363281 C 7.191406 3.71875 7.605469 3.195312 8.121094 3.195312 C 8.636719 3.195312 9.046875 3.71875 9.046875 4.363281 Z M 9.046875 4.363281 "/>
<path style=" stroke:none;fill-rule:nonzero;fill:rgb(100%,55.686275%,1.960784%);fill-opacity:1;" d="M 0.941406 12.316406 C 1.457031 12.316406 1.871094 11.789062 1.871094 11.144531 C 1.871094 10.5 1.457031 9.976562 0.941406 9.976562 C 0.425781 9.976562 0 10.5 0.015625 11.144531 C 0.015625 11.789062 0.425781 12.316406 0.941406 12.316406 Z M 0.941406 12.316406 "/>
</g>
</svg>
